<?xml version="1.0" standalone="no"?>
<!DOCTYPE svg PUBLIC "-//W3C//DTD SVG 20010904//EN"
 "http://www.w3.org/TR/2001/REC-SVG-20010904/DTD/svg10.dtd">
<svg version="1.0" xmlns="http://www.w3.org/2000/svg"
 width="397.000000pt" height="233.000000pt" viewBox="0 0 397.000000 233.000000"
 preserveAspectRatio="xMidYMid meet">

<g transform="translate(0.000000,233.000000) scale(0.100000,-0.100000)"
fill="#000000" stroke="none">
<path d="M0 1165 l0 -1165 1985 0 1985 0 0 1165 0 1165 -1985 0 -1985 0 0
-1165z m3185 1092 c56 -25 113 -83 141 -142 22 -47 24 -61 24 -232 l0 -181
-77 -65 c-262 -216 -518 -363 -876 -501 -590 -227 -1267 -299 -1632 -173 l-40
14 -3 539 c-3 601 -4 589 65 665 48 53 90 77 154 88 31 5 518 8 1129 8 1012
-2 1077 -3 1115 -20z m155 -1731 c-16 -55 -55 -110 -101 -142 -74 -51 -108
-54 -559 -54 l-415 0 3 -74 3 -74 124 -4 124 -4 53 -37 c123 -86 188 -77 -537
-77 -725 0 -660 -9 -537 77 l53 37 130 4 129 4 0 74 0 74 -423 0 c-464 0 -485
2 -562 59 -46 34 -103 121 -69 106 10 -4 125 -10 254 -13 357 -6 621 30 987
138 483 142 895 348 1208 605 55 45 109 92 120 105 l20 22 3 -393 c2 -272 -1
-406 -8 -433z"/>
</g>
</svg>
